<svg width="520" height="360" viewBox="0 0 520 360" fill="none" xmlns="http://www.w3.org/2000/svg">
  <defs>
    <linearGradient id="bg2" x1="40" y1="40" x2="478" y2="320" gradientUnits="userSpaceOnUse">
      <stop stop-color="#FFF4F5"/>
      <stop offset="1" stop-color="#FFFFFF"/>
    </linearGradient>
    <linearGradient id="tile" x1="116" y1="120" x2="410" y2="250" gradientUnits="userSpaceOnUse">
      <stop stop-color="#F7F0E8"/>
      <stop offset="1" stop-color="#CBBBAA"/>
    </linearGradient>
  </defs>
  <rect width="520" height="360" rx="8" fill="url(#bg2)"/>
  <path d="M93 133L294 85L426 177L219 241L93 133Z" fill="#E7ECEF"/>
  <path d="M121 134L294 97L397 174L220 225L121 134Z" fill="url(#tile)"/>
  <path d="M166 124L266 205M218 113L321 190M270 103L374 174M138 160L312 119M177 193L351 148" stroke="#FFFFFF" stroke-width="3" opacity="0.72"/>
  <path d="M175 167L319 134L353 161L207 199L175 167Z" fill="#2E3338"/>
  <path d="M196 166L312 140" stroke="#9AA5AC" stroke-width="6" stroke-linecap="round"/>
  <path d="M214 181L330 153" stroke="#F9072F" stroke-width="3" stroke-linecap="round" opacity="0.8"/>
  <path d="M93 133L219 241V266L93 158V133Z" fill="#B9C3CA"/>
  <path d="M219 241L426 177V201L219 266V241Z" fill="#9BA7AF"/>
  <circle cx="104" cy="82" r="24" fill="#F9072F" opacity="0.14"/>
  <path d="M92 82H116M104 70V94" stroke="#F9072F" stroke-width="5" stroke-linecap="round"/>
  <text x="140" y="88" fill="#24292D" font-family="Inter, Arial, sans-serif" font-size="22" font-weight="800">Befliesbar C16</text>
</svg>
