<svg width="520" height="360" viewBox="0 0 520 360" fill="none" xmlns="http://www.w3.org/2000/svg">
  <defs>
    <linearGradient id="bg4" x1="44" y1="30" x2="484" y2="320" gradientUnits="userSpaceOnUse">
      <stop stop-color="#FFFFFF"/>
      <stop offset="1" stop-color="#EDF5F2"/>
    </linearGradient>
    <linearGradient id="shelf" x1="150" y1="136" x2="410" y2="252" gradientUnits="userSpaceOnUse">
      <stop stop-color="#FAFCFD"/>
      <stop offset="0.32" stop-color="#B4BEC6"/>
      <stop offset="1" stop-color="#69737C"/>
    </linearGradient>
  </defs>
  <rect width="520" height="360" rx="8" fill="url(#bg4)"/>
  <path d="M112 244L321 98L418 168L205 318L112 244Z" fill="#E1E8EB"/>
  <path d="M150 230L322 116L382 164L207 286L150 230Z" fill="url(#shelf)"/>
  <path d="M174 229L323 132M192 247L342 148M210 263L360 164" stroke="#FFFFFF" stroke-width="5" opacity="0.62"/>
  <path d="M150 230L207 286V304L150 248V230Z" fill="#87929B"/>
  <path d="M207 286L382 164V181L207 304V286Z" fill="#6E7881"/>
  <path d="M284 143C288 121 310 111 329 124" stroke="#F9072F" stroke-width="8" stroke-linecap="round"/>
  <circle cx="104" cy="82" r="24" fill="#F9072F" opacity="0.14"/>
  <path d="M93 82H115" stroke="#F9072F" stroke-width="6" stroke-linecap="round"/>
  <text x="140" y="88" fill="#24292D" font-family="Inter, Arial, sans-serif" font-size="22" font-weight="800">Duschablage</text>
</svg>
