<svg width="520" height="360" viewBox="0 0 520 360" fill="none" xmlns="http://www.w3.org/2000/svg">
  <defs>
    <linearGradient id="bg6" x1="42" y1="40" x2="470" y2="320" gradientUnits="userSpaceOnUse">
      <stop stop-color="#FFF8F8"/>
      <stop offset="1" stop-color="#FFFFFF"/>
    </linearGradient>
    <linearGradient id="pipe" x1="148" y1="112" x2="366" y2="284" gradientUnits="userSpaceOnUse">
      <stop stop-color="#FAFCFD"/>
      <stop offset="0.28" stop-color="#9BA6AF"/>
      <stop offset="0.56" stop-color="#F2F6F8"/>
      <stop offset="1" stop-color="#59636B"/>
    </linearGradient>
  </defs>
  <rect width="520" height="360" rx="8" fill="url(#bg6)"/>
  <path d="M176 139L304 101L370 148L245 190L176 139Z" fill="#D8E0E5"/>
  <path d="M216 146L304 120L331 142L242 170L216 146Z" fill="url(#pipe)"/>
  <path d="M241 166C208 181 197 215 221 237C251 264 321 244 337 208" stroke="url(#pipe)" stroke-width="34" stroke-linecap="round"/>
  <path d="M333 206L399 229" stroke="url(#pipe)" stroke-width="34" stroke-linecap="round"/>
  <path d="M208 242L159 262" stroke="#F9072F" stroke-width="12" stroke-linecap="round"/>
  <circle cx="104" cy="82" r="24" fill="#F9072F" opacity="0.14"/>
  <path d="M96 80C99 72 111 72 114 80C118 91 93 91 96 80Z" fill="#F9072F"/>
  <text x="140" y="88" fill="#24292D" font-family="Inter, Arial, sans-serif" font-size="22" font-weight="800">Siphon Ersatzteil</text>
</svg>
