<?xml version="1.0" encoding="utf-8"?>
<!-- Generator: Adobe Illustrator 25.2.3, SVG Export Plug-In . SVG Version: 6.00 Build 0)  -->
<svg version="1.2" baseProfile="tiny" id="Layer_1" xmlns="http://www.w3.org/2000/svg" xmlns:xlink="http://www.w3.org/1999/xlink"
	 x="0px" y="0px" viewBox="0 0 3639.1 444.8" overflow="visible" xml:space="preserve">
<g transform="matrix(17.769 0 0 17.769 .23581 .30022)">
	<path fill-rule="evenodd" fill="#FFB3C7" d="M6.6,1.9h31.8c2.1,0,3.8,1.7,3.8,3.8V20c0,2.1-1.7,3.8-3.8,3.8H6.6
		c-2.1,0-3.8-1.7-3.8-3.8V5.7C2.8,3.6,4.5,1.9,6.6,1.9z"/>
	<g>
		<path fill-rule="evenodd" fill="#0A0B09" d="M38.5,14.7c-0.5,0-0.9,0.4-0.9,0.9c0,0.5,0.4,0.9,0.9,0.9c0.5,0,0.9-0.4,0.9-0.9
			C39.4,15.2,39,14.7,38.5,14.7L38.5,14.7z M35.4,14c0-0.7-0.6-1.3-1.3-1.3s-1.3,0.6-1.3,1.3c0,0.7,0.6,1.3,1.3,1.3
			S35.4,14.7,35.4,14z M35.4,11.5h1.5v5h-1.5v-0.3c-0.4,0.3-0.9,0.5-1.5,0.5c-1.4,0-2.6-1.2-2.6-2.6s1.2-2.6,2.6-2.6
			c0.5,0,1.1,0.2,1.5,0.5V11.5L35.4,11.5z M23.5,12.2v-0.7H22v5h1.5v-2.3c0-0.8,0.8-1.2,1.4-1.2c0,0,0,0,0,0v-1.5
			C24.4,11.5,23.8,11.8,23.5,12.2L23.5,12.2z M19.8,14c0-0.7-0.6-1.3-1.3-1.3c-0.7,0-1.3,0.6-1.3,1.3c0,0.7,0.6,1.3,1.3,1.3
			C19.2,15.3,19.8,14.7,19.8,14z M19.8,11.5h1.5v5h-1.5v-0.3c-0.4,0.3-0.9,0.5-1.5,0.5c-1.4,0-2.6-1.2-2.6-2.6s1.2-2.6,2.6-2.6
			c0.5,0,1.1,0.2,1.5,0.5V11.5L19.8,11.5z M28.7,11.4c-0.6,0-1.2,0.2-1.5,0.7v-0.6h-1.5v5h1.5v-2.6c0-0.8,0.5-1.1,1.1-1.1
			c0.7,0,1,0.4,1,1.1v2.6h1.5v-3.2C30.8,12.2,29.9,11.4,28.7,11.4L28.7,11.4z M13.5,16.5h1.6V9.3h-1.6V16.5z M6.7,16.5h1.6V9.3H6.7
			V16.5z M12.4,9.3c0,1.6-0.6,3-1.7,4.1l2.3,3.1h-2l-2.5-3.4l0.6-0.5c1.1-0.8,1.7-2,1.7-3.4L12.4,9.3L12.4,9.3z"/>
	</g>
</g>
<g>
	<path fill="#0E4595" d="M2142.6,26.5h565.2c17.8,0,32.3,14.5,32.3,32.3v339.1c0,17.8-14.5,32.3-32.3,32.3h-565.2
		c-17.8,0-32.3-14.5-32.3-32.3V58.8C2110.3,41,2124.7,26.5,2142.6,26.5z"/>
	<path fill="#FFFFFF" d="M2347,308l26.9-158h43.1l-27,158H2347z M2545.7,153.4c-8.5-3.2-21.9-6.6-38.6-6.6
		c-42.6,0-72.6,21.4-72.8,52.2c-0.2,22.7,21.4,35.4,37.7,42.9c16.8,7.7,22.4,12.7,22.3,19.6c-0.1,10.6-13.4,15.4-25.8,15.4
		c-17.2,0-26.4-2.4-40.6-8.3l-5.6-2.5l-6,35.4c10.1,4.4,28.7,8.2,48,8.4c45.3,0,74.7-21.2,75-54c0.2-18-11.3-31.7-36.2-42.9
		c-15.1-7.3-24.3-12.2-24.2-19.6c0-6.6,7.8-13.6,24.7-13.6c14.1-0.2,24.3,2.9,32.2,6.1l3.9,1.8L2545.7,153.4 M2656.5,150h-33.3
		c-10.3,0-18,2.8-22.6,13.1l-64,144.8h45.2c0,0,7.4-19.5,9.1-23.8c4.9,0,48.9,0.1,55.2,0.1c1.3,5.5,5.2,23.7,5.2,23.7h40L2656.5,150
		L2656.5,150z M2603.7,252.1c3.6-9.1,17.2-44.2,17.2-44.2c-0.3,0.4,3.5-9.2,5.7-15.1l2.9,13.6c0,0,8.3,37.7,10,45.6H2603.7z
		 M2310.4,150l-42.2,107.8l-4.5-21.9c-7.9-25.2-32.3-52.6-59.7-66.3l38.6,138.2l45.6-0.1L2356,150L2310.4,150"/>
	<path fill="#F2AE14" d="M2228.9,150h-69.5l-0.5,3.3c54,13.1,89.8,44.7,104.7,82.7l-15.1-72.6C2245.8,153.3,2238.2,150.3,2228.9,150
		"/>
</g>
<g>
	<path fill-rule="evenodd" fill="#E9B040" d="M3190,366.8c32.7,30.2,76.7,48.5,124.5,48.5c102.7,0,185.9-83.8,185.9-186.8
		c0-103.4-83.1-187.1-185.9-187.1c-47.8,0-91.8,18.3-124.5,48.5c-37.6,34.3-61.3,83.8-61.3,138.7
		C3128.7,283.4,3152.5,332.8,3190,366.8L3190,366.8z"/>
	<path fill-rule="evenodd" fill="#E9B040" d="M3475.7,332.5c0-3.2,2.6-5.8,5.8-5.8c3.5,0,6.1,2.6,6.1,5.8c0,3.5-2.6,6.1-6.1,6.1
		C3478.3,338.6,3475.7,336,3475.7,332.5z M3481.5,337.3c2.6,0,4.8-2.3,4.8-4.8s-2.2-4.5-4.8-4.5c-2.3,0-4.5,1.9-4.5,4.5
		S3479.3,337.3,3481.5,337.3z M3480.9,335.4h-1.3v-5.5h2.2c0.3,0,1,0,1.3,0.3c0.6,0.3,0.6,0.6,0.6,1.3c0,0.6-0.3,1.3-1,1.3l1.3,2.6
		h-1.6l-0.6-2.3h-1V335.4v-3.2h1.3c0.3,0,0.3-0.3,0.3-0.6c0-0.3,0-0.3-0.3-0.6h-1.3V335.4z"/>
	<path fill-rule="evenodd" fill="#CC2131" d="M3250.1,208.6c-0.6-6.7-1.9-13.2-3.2-19.9h-113.6c1.3-6.7,3.2-13.2,5.1-19.6h103
		c-2.2-6.8-4.8-13.4-7.7-19.9h-87.3c3.2-6.8,6.7-13.4,10.6-19.9h65.8c-4.2-6.9-9-13.4-14.1-19.6h-37.6c5.8-7.1,12.1-13.7,18.9-19.9
		c-33.1-29.9-76.7-48.5-124.9-48.5c-102.4,0-185.9,83.8-185.9,187.1c0,103,83.5,186.8,185.9,186.8c48.1,0,91.8-18.3,124.9-48.5
		c6.7-6,12.9-12.6,18.6-19.6h-37.6c-5.1-6.4-9.6-12.8-14.1-19.9h65.8c4.1-6.3,7.8-13,10.9-19.9h-87.3c-2.9-6.4-5.8-12.8-8-19.6h103
		c2.2-6.4,3.9-13.2,5.5-19.9c1.3-6.4,2.6-13.2,3.2-19.9c0.7-6.5,1-13,1-19.6C3251,221.8,3250.7,215,3250.1,208.6L3250.1,208.6z"/>
	<path fill-rule="evenodd" fill="#FFFFFF" d="M3475.7,271.8c0-3.5,2.6-6.1,5.8-6.1c3.5,0,6.1,2.6,6.1,6.1c0,3.2-2.6,6.1-6.1,6.1
		C3478.3,277.9,3475.7,275,3475.7,271.8z M3481.5,276.3c2.6,0,4.8-1.9,4.8-4.5c0-2.6-2.2-4.5-4.8-4.5c-2.3,0-4.5,1.9-4.5,4.5
		C3477,274.4,3479.3,276.3,3481.5,276.3z M3480.9,274.4h-1.3v-5.1h3.5c0.6,0.3,0.6,1,0.6,1.6c0,0.3-0.3,1-1,1.3l1.3,2.2h-1.6
		l-0.6-1.9h-1V274.4v-2.9h0.6c0.3,0,0.6,0,0.6-0.3c0.3,0,0.3-0.3,0.3-0.6c0,0,0-0.3-0.3-0.3c0-0.3-0.3,0-0.6,0h-0.6V274.4z"/>
	<path fill-rule="evenodd" fill="#1B3771" d="M3126.8,282.4c-6.1,1.6-10.6,2.6-15.1,2.6c-9.6,0-15.4-6.1-15.4-17
		c0-2.2,0.3-4.5,0.6-7.1l1.3-7.4l1-6.1l8.7-52.6h19.3l-2.2,11.6h12.2l-2.9,19.3H3122l-5.1,31.5c-0.3,1.6-0.3,2.6-0.3,3.2
		c0,4.2,1.9,5.8,6.7,5.8c2.2,0,4.2-0.3,6.1-0.6C3129.4,265.4,3126.8,282.4,3126.8,282.4z M3189.1,281.8c-7.1,1.9-13.5,2.9-20.5,2.9
		c-21.8,0-34.3-11.6-34.3-34.3c0-26.6,14.8-45.9,35.3-45.9c16.4,0,27,10.9,27,27.9c0,5.8-0.6,11.2-2.2,18.9h-40.1
		c-0.3,1.3-0.3,1.9-0.3,2.6c0,9,6.1,13.5,17.7,13.5c7.4,0,13.8-1.6,20.9-4.8L3189.1,281.8z M3177.2,235.9V232c0-6.4-3.5-10-9.6-10
		c-6.4,0-10.9,4.8-12.8,13.8L3177.2,235.9C3177.2,235.9,3177.2,235.9,3177.2,235.9z M2972.7,283.4h-19.9l11.6-72.9l-26,72.9h-13.8
		l-1.6-72.5l-12.2,72.5h-19.6l15.7-94.7h29.2l0.6,58.4l19.6-58.4h32.1C2988.5,188.7,2972.7,283.4,2972.7,283.4z M3021.2,249
		c-1.9-0.3-2.6-0.3-3.9-0.3c-11.6,0-17.3,4.5-17.3,11.6c0,4.8,2.9,8,7.4,8C3017,268.3,3020.9,260.3,3021.2,249z M3037.3,283.4h-17.3
		l0.3-8c-4.5,6.1-10.6,9.3-21.2,9.3c-9.6,0-18-8.7-18-21.2c0-3.5,0.6-6.7,1.6-9.9c3.2-11.9,15.1-19.3,33.4-19.6c2.2,0,5.8,0,9,0.3
		c0.6-2.6,0.6-3.5,0.6-5.1c0-5.1-4.2-6.7-13.5-6.7c-5.8,0-12.2,1-16.7,2.6l-2.9,0.6l-1.3,0.3l2.9-17.3c9.3-2.9,16-4.2,23.4-4.2
		c17.3,0,26.6,8,26.6,22.8c0,3.9,0.3,6.7-1,15.1l-4.5,27.6l-0.6,4.8l-0.3,3.9l-0.3,2.6C3037.6,281.1,3037.3,283.4,3037.3,283.4z
		 M3286,207c5.8,0,10.9,1.6,18,5.1l3.5-20.5c-1.9-1-2.6-1-5.1-1.9l-8-2.2c-2.6-0.6-5.8-1-9.3-1c-10,0-15.7,0.3-21.8,3.9
		c-3.2,2.2-7.4,5.1-11.9,10.3l-2.6-0.6l-20.5,14.4l1-8H3208l-12.5,77h20.2l7.4-41.4c0,0,2.9-5.8,4.2-7.7c3.9-4.8,7.1-4.8,11.2-4.8
		h1.6c-0.7,4.9-1,9.8-1,14.8c0,25,14.1,40.8,36,40.8c5.5,0,10.3-0.6,17.7-2.6l3.5-21.8c-6.4,3.5-12.2,5.1-17,5.1
		c-11.9,0-18.9-9-18.9-23.1C3260.3,221.8,3270.9,207,3286,207z M3456.5,188.7l-4.5,27c-4.8-7.4-10.6-10.9-18.3-10.9
		c-10.6,0-20.5,6.1-26.6,17.7v-0.3l-12.8-7.7l1.3-8H3374l-12.2,77h19.9l6.7-41.4c0,0,5.1-5.8,6.4-7.7c3.2-3.9,6.4-4.5,9-4.8
		c-2.2,6.4-3.5,14.1-3.5,22.8c0,19.3,9.9,32.1,24.7,32.1c7.4,0,13.2-2.6,18.6-8.7l-1,7.7h18.9l15.4-94.7L3456.5,188.7L3456.5,188.7z
		 M3431.8,265.1c-6.7,0-10.3-5.1-10.3-15.1c0-15.1,6.4-26,15.7-26c7.1,0,10.6,5.5,10.6,15.1C3447.8,254.5,3441.4,265.1,3431.8,265.1
		z M3339,249c-1.9-0.3-2.6-0.3-3.9-0.3c-11.6,0-17.3,4.5-17.3,11.6c0,4.8,2.9,8,7.4,8C3334.8,268.3,3338.7,260.3,3339,249z
		 M3355,283.4h-17.7l0.6-8c-4.5,6.1-10.6,9.3-21.2,9.3c-10,0-18.6-8.3-18.6-21.2c0-18.3,13.8-29.5,35.6-29.5c2.3,0,5.8,0,8.7,0.3
		c0.6-2.6,1-3.5,1-5.1c0-5.1-4.2-6.7-13.8-6.7c-5.5,0-12.2,1-16.7,2.6l-2.6,0.6l-1.3,0.3l2.9-17.3c9.3-2.9,16.1-4.2,23.4-4.2
		c17.3,0,26.3,8,26.3,22.8c0,3.9,0.6,6.7-1,15.1l-4.2,27.6l-0.6,4.8l-0.6,3.9l-0.3,2.6L3355,283.4L3355,283.4L3355,283.4z
		 M3079.3,222.7c3.9,0,9.3,0.3,15.1,1.3l2.9-18c-5.8-0.6-13.5-1.6-18-1.6c-22.5,0-29.8,12.2-29.8,26.3c0,9.3,4.2,16,15.1,21.2
		c8,3.9,9.3,4.5,9.3,8c0,4.8-4.2,7.7-11.9,7.7c-6.1,0-11.9-1-18.3-3.2l-2.2,17.7l0.3,0.3l3.9,0.6c1.3,0.3,2.9,0.6,5.1,1
		c4.8,0.3,9,0.6,11.6,0.6c22.5,0,31.8-8.7,31.8-25.7c0-10.6-5.1-17-15.1-21.5c-8.7-3.9-9.6-4.5-9.6-8
		C3069.4,225.9,3073.2,222.7,3079.3,222.7z"/>
	<path fill-rule="evenodd" fill="#FFFFFF" d="M3313,185.5l-3.5,20.5c-7.1-3.5-12.2-5.1-18-5.1c-15.1,0-25.7,14.8-25.7,35.6
		c0,14.4,7.1,23.1,18.9,23.1c4.8,0,10.6-1.6,17-4.8l-3.5,21.5c-7.4,1.9-12.2,2.9-17.7,2.9c-21.8,0-35.3-15.7-35.3-41.1
		c0-33.7,18.6-57.5,45.3-57.5c3.5,0,6.7,0.3,9.3,1l8,1.9C3310.4,184.5,3311.1,184.8,3313,185.5L3313,185.5z M3248.1,199.6h-1.9
		c-6.7,0-10.6,3.2-16.7,12.5l1.9-11.9h-18.3l-12.5,77h20.2c7.4-47.2,9.3-55.2,18.9-55.2h1.3c1.9-9.3,4.5-16.1,7.7-22.1
		C3248.8,199.9,3248.1,199.6,3248.1,199.6z M3131.9,276.3c-5.5,1.9-10,2.6-14.4,2.6c-10.3,0-16.1-5.8-16.1-17c0-1.9,0.3-4.5,0.6-6.7
		l1.3-7.7l1-6.1l8.7-52.6h19.9l-2.2,11.6h10.3l-2.6,18.9h-10.3l-5.5,32.1c-0.3,1.3-0.3,2.3-0.3,3.2c0,3.9,1.9,5.5,6.7,5.5
		c2.2,0,4.2,0,5.5-0.6L3131.9,276.3L3131.9,276.3z M3054.6,224.6c0,9.6,4.5,16.4,15.1,21.5c8.3,3.9,9.6,5.1,9.6,8.3
		c0,4.8-3.5,7.1-11.6,7.1c-6.1,0-11.6-1-18-2.9l-2.9,17.7l1,0.3l3.5,0.6c1.3,0.3,2.9,0.6,5.5,0.6c4.5,0.6,8.3,0.6,10.9,0.6
		c21.2,0,31.1-8,31.1-25.7c0-10.6-4.2-16.7-14.1-21.5c-8.7-3.9-9.6-4.8-9.6-8.3c0-4.2,3.5-6.1,10-6.1c3.9,0,9.3,0.3,14.4,1l2.9-17.7
		c-5.1-1-13.2-1.6-17.7-1.6C3062.3,198.6,3054.3,210.5,3054.6,224.6z M3466.7,277.3h-18.9l1-7.4c-5.5,5.8-11.2,8.3-18.6,8.3
		c-14.8,0-24.4-12.5-24.4-31.8c0-25.7,15.1-47.5,32.7-47.5c8,0,13.8,3.5,19.3,10.6l4.5-27h19.9L3466.7,277.3L3466.7,277.3z
		 M3437.2,259.3c9.3,0,15.7-10.9,15.7-26c0-10-3.5-15.1-10.6-15.1c-9,0-15.7,10.6-15.7,25.7C3426.6,254.2,3430.1,259.3,3437.2,259.3
		z M3193.6,275.7c-7.1,2.3-13.5,3.2-20.9,3.2c-22.5,0-34-11.9-34-34.7c0-26.3,14.8-45.9,35-45.9c16.7,0,27.3,10.9,27.3,27.9
		c0,5.8-0.6,11.2-2.6,19.3h-39.8c-0.3,1-0.3,1.6-0.3,2.3c0,9,6.1,13.5,17.7,13.5c7.4,0,13.8-1.3,20.9-4.8
		C3196.8,256.4,3193.6,275.7,3193.6,275.7z M3182.3,229.8v-3.8c0-6.4-3.5-10-9.6-10c-6.4,0-10.9,4.8-12.8,13.8
		C3159.9,229.8,3182.3,229.8,3182.3,229.8z M2977.9,277.3H2958l11.6-72.9l-26,72.9h-13.8l-1.6-72.2l-12.2,72.2h-18.6l15.7-94.7h28.9
		l1,58.7l19.3-58.7h31.5C2993.6,182.6,2977.9,277.3,2977.9,277.3z M3027.6,242.9c-1.9,0-2.9-0.3-4.5-0.3c-11.2,0-17,4.2-17,11.9
		c0,4.8,2.6,7.7,7.1,7.7C3021.5,262.2,3027.3,254.5,3027.6,242.9z M3042.4,277.3h-16.7l0.3-8c-5.1,6.4-11.9,9.3-21.2,9.3
		c-10.9,0-18.3-8.3-18.3-20.9c0-18.9,12.8-29.8,35.3-29.8c2.2,0,5.1,0.3,8.3,0.6c0.6-2.6,0.6-3.5,0.6-4.8c0-5.1-3.5-7.1-12.8-7.1
		c-5.8,0-12.2,0.6-16.7,1.9l-2.9,1l-1.9,0.3l2.9-17.3c10-2.9,16.7-3.9,24.1-3.9c17.3,0,26.6,7.7,26.6,22.5c0,3.9-0.3,6.7-1.6,15.4
		l-4.5,27.3l-0.6,4.8l-0.3,3.9l-0.3,2.9L3042.4,277.3L3042.4,277.3z M3345.4,242.9c-2.3,0-3.2-0.3-4.5-0.3
		c-11.6,0-17.3,4.2-17.3,11.9c0,4.8,2.9,7.7,7.4,7.7C3339,262.2,3345.1,254.5,3345.4,242.9L3345.4,242.9z M3360.2,277.3h-16.7l0.3-8
		c-5.1,6.4-11.9,9.3-21.2,9.3c-10.9,0-18.3-8.3-18.3-20.9c0-18.9,12.8-29.8,35.3-29.8c2.3,0,5.1,0.3,8,0.6c0.6-2.6,1-3.5,1-4.8
		c0-5.1-3.5-7.1-12.8-7.1c-5.8,0-12.5,0.6-17,1.9l-2.6,1l-1.9,0.3l2.9-17.3c10-2.9,16.7-3.9,24.1-3.9c17.3,0,26.3,7.7,26.3,22.5
		c0,3.9,0,6.7-1.6,15.4l-4.2,27.3l-0.6,4.8l-0.6,3.9l-0.3,2.9L3360.2,277.3L3360.2,277.3L3360.2,277.3z M3414.1,199.6h-1.9
		c-6.7,0-10.6,3.2-16.7,12.5l1.9-11.9h-18.3l-12.2,77h19.9c7.4-47.2,9.3-55.2,18.9-55.2h1.3c1.9-9.3,4.5-16.1,7.7-22.1
		C3414.7,199.9,3414.1,199.6,3414.1,199.6z"/>
</g>
<g>
	<path fill="#003087" d="M1058.6,92.6c-14.1-9.7-32.6-14.6-55.3-14.6h-88.1c-7,0-10.8,3.5-11.6,10.5l-35.8,224.6
		c-0.4,2.2,0.2,4.2,1.7,6.1c1.5,1.8,3.3,2.8,5.5,2.8h41.8c7.3,0,11.4-3.5,12.1-10.5l9.9-60.5c0.4-2.9,1.7-5.3,3.9-7.2
		c2.2-1.8,5-3,8.3-3.6c3.3-0.5,6.4-0.8,9.4-0.8c2.9,0,6.4,0.2,10.5,0.6c4,0.4,6.6,0.5,7.7,0.5c31.6,0,56.3-8.9,74.3-26.7
		c18-17.8,27-42.5,27-74C1079.8,118.1,1072.7,102.4,1058.6,92.6L1058.6,92.6z M1013.2,160.1c-1.8,12.8-6.6,21.3-14.3,25.3
		c-7.7,4-18.7,6.1-33,6.1l-18.2,0.5l9.4-58.9c0.7-4,3.1-6.1,7.2-6.1h10.5c14.7,0,25.3,2.1,31.9,6.3
		C1013.2,137.6,1015.4,146.5,1013.2,160.1L1013.2,160.1z"/>
	<path fill="#009CDE" d="M1988,78.1h-40.7c-4,0-6.4,2-7.2,6.1l-35.8,229l-0.6,1.1c0,1.8,0.7,3.6,2.2,5.2c1.5,1.6,3.3,2.5,5.5,2.5
		h36.3c7,0,10.8-3.5,11.6-10.5l35.8-225.1v-0.5C1995.2,80.6,1992.8,78.1,1988,78.1L1988,78.1z"/>
	<path fill="#003087" d="M1495.9,166.7c0-1.8-0.7-3.6-2.2-5.2c-1.5-1.7-3.1-2.5-5-2.5h-42.4c-4,0-7.3,1.8-9.9,5.5l-58.3,85.9
		l-24.2-82.6c-1.8-5.9-5.9-8.8-12.1-8.8h-41.3c-1.8,0-3.5,0.8-4.9,2.5c-1.5,1.6-2.2,3.4-2.2,5.2c0,0.7,3.6,11.6,10.7,32.5
		c7.2,20.9,14.9,43.5,23.1,67.7c8.3,24.2,12.6,37.1,12.9,38.5c-30.1,41.1-45.1,63.1-45.1,66.1c0,4.8,2.4,7.2,7.2,7.2h42.4
		c4,0,7.3-1.8,9.9-5.5l140.4-202.6C1495.6,169.8,1495.9,168.5,1495.9,166.7L1495.9,166.7z"/>
	<path fill="#009CDE" d="M1890.6,159h-41.8c-5.1,0-8.3,6.1-9.4,18.2c-9.6-14.7-27-22-52.3-22c-26.4,0-48.9,9.9-67.4,29.7
		c-18.5,19.8-27.8,43.1-27.8,69.9c0,21.7,6.3,38.9,19,51.7c12.7,12.9,29.6,19.3,50.9,19.3c10.6,0,21.5-2.2,32.5-6.6
		c11-4.4,19.6-10.3,25.9-17.6c0,0.4-0.4,2-1.1,4.9c-0.7,2.9-1.1,5.2-1.1,6.6c0,5.9,2.4,8.8,7.2,8.8h38c7,0,11-3.5,12.1-10.5
		l22.6-143.7c0.4-2.2-0.2-4.2-1.7-6.1C1894.6,159.9,1892.8,159,1890.6,159L1890.6,159z M1818.8,267.4c-9.4,9.2-20.6,13.8-33.9,13.8
		c-10.6,0-19.3-2.9-25.9-8.8c-6.6-5.9-9.9-13.9-9.9-24.2c0-13.6,4.6-25,13.8-34.4c9.2-9.4,20.5-14,34.1-14c10.3,0,18.8,3,25.6,9.1
		c6.8,6.1,10.2,14.4,10.2,25.1C1832.8,247.1,1828.1,258.3,1818.8,267.4L1818.8,267.4z"/>
	<path fill="#003087" d="M1265.3,159h-41.8c-5.1,0-8.3,6.1-9.4,18.2c-9.9-14.7-27.3-22-52.3-22c-26.4,0-48.9,9.9-67.4,29.7
		c-18.5,19.8-27.8,43.1-27.8,69.9c0,21.7,6.3,38.9,19,51.7c12.7,12.9,29.6,19.3,50.9,19.3c10.3,0,20.9-2.2,31.9-6.6
		c11-4.4,19.8-10.3,26.4-17.6c-1.5,4.4-2.2,8.3-2.2,11.6c0,5.9,2.4,8.8,7.2,8.8h38c7,0,11-3.5,12.1-10.5l22.6-143.7
		c0.4-2.2-0.2-4.2-1.7-6.1C1269.3,159.9,1267.5,159,1265.3,159L1265.3,159z M1193.4,267.7c-9.4,9-20.8,13.5-34.4,13.5
		c-10.6,0-19.2-2.9-25.6-8.8c-6.4-5.9-9.6-13.9-9.6-24.2c0-13.6,4.6-25,13.8-34.4c9.2-9.4,20.5-14,34.1-14c10.3,0,18.8,3,25.6,9.1
		c6.8,6.1,10.2,14.4,10.2,25.1C1207.5,247.4,1202.8,258.7,1193.4,267.7L1193.4,267.7z"/>
	<path fill="#009CDE" d="M1683.9,92.6c-14.1-9.7-32.6-14.6-55.3-14.6h-87.5c-7.3,0-11.4,3.5-12.1,10.5l-35.8,224.6
		c-0.4,2.2,0.2,4.2,1.7,6.1c1.5,1.8,3.3,2.8,5.5,2.8h45.1c4.4,0,7.3-2.4,8.8-7.2l9.9-63.9c0.4-2.9,1.6-5.3,3.9-7.2
		c2.2-1.8,5-3,8.3-3.6c3.3-0.5,6.4-0.8,9.4-0.8c2.9,0,6.4,0.2,10.5,0.6c4,0.4,6.6,0.5,7.7,0.5c31.6,0,56.3-8.9,74.3-26.7
		c18-17.8,27-42.5,27-74C1705.1,118.1,1698,102.4,1683.9,92.6L1683.9,92.6z M1627.5,183.2c-8.1,5.5-20.2,8.3-36.3,8.3l-17.6,0.6
		l9.4-58.9c0.7-4,3.1-6.1,7.2-6.1h9.9c8.1,0,14.5,0.4,19.3,1.1c4.8,0.7,9.4,3,13.8,6.9c4.4,3.9,6.6,9.5,6.6,16.8
		C1639.6,167.2,1635.6,177.7,1627.5,183.2L1627.5,183.2z"/>
</g>
</svg>
